<svg viewBox="0 0 20 20" fill="none" xmlns="http://www.w3.org/2000/svg">
    <path d="M1.667 20A1.69 1.69 0 0 1 .5 19.55c-.333-.3-.5-.65-.5-1.05V3c0-.4.167-.75.5-1.05.333-.3.722-.45 1.167-.45h1.25c.305 0 .555-.225.555-.5V.5c0-.275.25-.5.556-.5h.694c.306 0 .556.225.556.5V1c0 .275.25.5.555.5h8.334c.305 0 .555-.225.555-.5V.5c0-.275.25-.5.556-.5h.694c.306 0 .556.225.556.5V1c0 .275.25.5.555.5h1.25c.445 0 .834.15 1.167.45.333.3.5.65.5 1.05v15.5c0 .4-.167.75-.5 1.05-.333.3-.722.45-1.167.45H1.667Zm.555-1.5h15.556c.305 0 .555-.225.555-.5V8.25c0-.275-.25-.5-.555-.5H2.222c-.305 0-.555.225-.555.5V18c0 .275.25.5.555.5Zm0-12.25h15.556c.305 0 .555-.225.555-.5V3.5c0-.275-.25-.5-.555-.5H2.222c-.305 0-.555.225-.555.5v2.25c0 .275.25.5.555.5ZM10 12c-.317 0-.578-.095-.789-.29A.926.926 0 0 1 8.89 11c0-.28.105-.52.322-.71.211-.19.478-.29.789-.29.311 0 .578.095.789.29.211.19.322.43.322.71 0 .28-.105.52-.322.71-.211.19-.478.29-.789.29Zm-4.444 0c-.317 0-.578-.095-.795-.29a.921.921 0 0 1-.317-.71c0-.28.106-.52.317-.71.211-.19.478-.29.795-.29.316 0 .577.095.788.29.212.19.323.43.323.71 0 .28-.106.52-.323.71-.21.19-.477.29-.788.29Zm8.888 0c-.316 0-.577-.095-.788-.29a.926.926 0 0 1-.323-.71c0-.28.106-.52.323-.71.21-.19.477-.29.788-.29.312 0 .578.095.79.29.21.19.322.43.322.71 0 .28-.106.52-.323.71-.21.19-.477.29-.789.29ZM10 16c-.317 0-.578-.095-.789-.29A.926.926 0 0 1 8.89 15c0-.28.105-.52.322-.71.211-.19.478-.29.789-.29.311 0 .578.095.789.29.211.19.322.43.322.71 0 .28-.105.52-.322.71-.211.19-.478.29-.789.29Zm-4.444 0c-.317 0-.578-.095-.795-.29a.921.921 0 0 1-.317-.71c0-.28.106-.52.317-.71.211-.19.478-.29.795-.29.316 0 .577.095.788.29.212.19.323.43.323.71 0 .28-.106.52-.323.71-.21.19-.477.29-.788.29Zm8.888 0c-.316 0-.577-.095-.788-.29a.926.926 0 0 1-.323-.71c0-.28.106-.52.323-.71.21-.19.477-.29.788-.29.312 0 .578.095.79.29.21.19.322.43.322.71 0 .28-.106.52-.323.71-.21.19-.477.29-.789.29Z" fill="#010101"/>
</svg>