<svg viewBox="0 0 20 20" fill="none" xmlns="http://www.w3.org/2000/svg">
    <path d="M9.998 20c-1.365 0-2.66-.26-3.875-.79a10.162 10.162 0 0 1-3.189-2.149 10.103 10.103 0 0 1-2.15-3.188A9.667 9.667 0 0 1 0 10c0-1.364.265-2.684.785-3.898a9.98 9.98 0 0 1 2.15-3.173c.909-.9 1.969-1.61 3.188-2.14A9.678 9.678 0 0 1 9.998 0a9.88 9.88 0 0 1 3.899.785 10.121 10.121 0 0 1 3.174 2.139c.9.9 1.614 1.959 2.14 3.173A9.72 9.72 0 0 1 20 9.995c0 1.384-.26 2.659-.79 3.873a10.304 10.304 0 0 1-2.14 3.188c-.899.91-1.959 1.625-3.174 2.15a9.728 9.728 0 0 1-3.899.789V20Zm0-1.5c2.364 0 4.373-.829 6.023-2.483 1.65-1.66 2.474-3.663 2.474-6.012 0-2.349-.824-4.373-2.474-6.022-1.65-1.65-3.66-2.474-6.024-2.474s-4.353.825-6.008 2.474c-1.66 1.65-2.49 3.658-2.49 6.022 0 2.364.83 4.353 2.49 6.012 1.66 1.66 3.664 2.484 6.009 2.484Z" fill="#010101"/>
</svg>