<svg viewBox="0 0 20 20" fill="none" xmlns="http://www.w3.org/2000/svg">
    <path d="m.74221 19.779-.521247-.5212c-.294617-.2946-.294617-.7705 0-1.0652l7.660057-7.66c.29462-.2946.29462-.77056 0-1.06518L.220963 1.80737c-.294617-.29462-.294617-.77054 0-1.06516L.74221.220963c.29462-.294617.77054-.294617 1.06516 0L9.46742 7.88102c.29462.29462.77058.29462 1.06518 0l7.66-7.660057c.2947-.294617.7706-.294617 1.0652 0l.5212.521247c.2947.29462.2947.77054 0 1.06516l-7.66 7.66005c-.2946.29462-.2946.77058 0 1.06518l7.66 7.66c.2947.2947.2947.7706 0 1.0652l-.5212.5212c-.2946.2947-.7705.2947-1.0652 0l-7.66-7.66c-.2946-.2946-.77056-.2946-1.06518 0l-7.66005 7.66c-.29462.2947-.77054.2947-1.06516 0Z" fill="#010101"/>
</svg>