<svg viewBox="0 0 20 20" xmlns="http://www.w3.org/2000/svg" fill="none">
    <path fill="#011627" d="M4.75 19.286v-3.322a.716.716 0 0 0-.714-.714H.714A.716.716 0 0 1 0 14.536v-.715c0-.392.321-.714.714-.714H6.18c.392 0 .714.322.714.714v5.465a.716.716 0 0 1-.714.714h-.715a.716.716 0 0 1-.714-.714Zm8.357 0V13.82c0-.392.322-.714.714-.714h5.465c.393 0 .714.322.714.714v.715a.716.716 0 0 1-.714.714h-3.322a.716.716 0 0 0-.714.714v3.322a.716.716 0 0 1-.714.714h-.715a.716.716 0 0 1-.714-.714ZM0 6.179v-.715c0-.393.321-.714.714-.714h3.322a.716.716 0 0 0 .714-.714V.714c0-.393.321-.714.714-.714h.715c.392 0 .714.321.714.714V6.18a.716.716 0 0 1-.714.714H.714A.716.716 0 0 1 0 6.179Zm13.107 0V.714c0-.393.322-.714.714-.714h.715c.393 0 .714.321.714.714v3.322c0 .393.321.714.714.714h3.322c.393 0 .714.321.714.714v.715a.716.716 0 0 1-.714.714H13.82a.716.716 0 0 1-.714-.714Z"/>
</svg>