<svg viewBox="0 0 20 20" fill="none" xmlns="http://www.w3.org/2000/svg">
    <path d="M3.84 20c-.702 0-1.248-.367-1.636-1.1a.423.423 0 0 1-.05-.2V2.917A.422.422 0 0 0 1.73 2.5h-.31A.422.422 0 0 1 1 2.083V1.25c0-.228.191-.417.422-.417h4.444c.23 0 .421-.189.421-.416C6.287.189 6.48 0 6.71 0h6.582c.23 0 .421.189.421.417 0 .227.192.416.422.416h4.444c.23 0 .422.19.422.417v.833a.422.422 0 0 1-.422.417h-.31a.422.422 0 0 0-.421.417v15.416c0 .445-.169.834-.506 1.167-.338.333-.732.5-1.182.5H3.841ZM15.739 2.5H4.261a.422.422 0 0 0-.421.417v15c0 .227.19.416.421.416h11.476c.23 0 .421-.189.421-.416v-15a.422.422 0 0 0-.421-.417ZM7.244 15.944h.844c.23 0 .421-.188.421-.416V5.278a.422.422 0 0 0-.421-.417h-.844a.422.422 0 0 0-.422.417v10.25c0 .228.191.416.422.416Zm4.668 0h.844c.23 0 .422-.188.422-.416V5.278a.422.422 0 0 0-.422-.417h-.844a.422.422 0 0 0-.421.417v10.25c0 .228.19.416.421.416Z" fill="#010101"/>
</svg>