<svg viewBox="0 0 20 20" fill="none" xmlns="http://www.w3.org/2000/svg">
    <path d="M0 19.286V13.82c0-.392.321-.714.714-.714h.715c.392 0 .714.322.714.714v3.322c0 .393.321.714.714.714H6.18c.392 0 .714.322.714.714v.715a.716.716 0 0 1-.714.714H.714A.716.716 0 0 1 0 19.286ZM0 6.179V.714C0 .321.321 0 .714 0H6.18c.392 0 .714.321.714.714v.715a.716.716 0 0 1-.714.714H2.857a.716.716 0 0 0-.714.714V6.18a.716.716 0 0 1-.714.714H.714A.716.716 0 0 1 0 6.179Zm13.107 13.107v-.715c0-.392.322-.714.714-.714h3.322a.716.716 0 0 0 .714-.714V13.82c0-.392.322-.714.714-.714h.715c.393 0 .714.322.714.714v5.465a.716.716 0 0 1-.714.714H13.82a.716.716 0 0 1-.714-.714Zm4.75-13.107V2.857a.716.716 0 0 0-.714-.714H13.82a.716.716 0 0 1-.714-.714V.714c0-.393.322-.714.714-.714h5.465c.393 0 .714.321.714.714V6.18a.716.716 0 0 1-.714.714h-.715a.716.716 0 0 1-.714-.714Z" fill="#010101"/>
</svg>