<svg viewBox="0 0 20 20" xmlns="http://www.w3.org/2000/svg" fill="none">
    <path fill="#011627" d="M18.5 6.25V4c0-.275-.225-.5-.5-.5h-2.25a.501.501 0 0 1-.5-.5v-.5c0-.275.225-.5.5-.5h2.75c.4 0 .75.15 1.05.45.3.3.45.65.45 1.05v2.75c0 .275-.225.5-.5.5H19a.501.501 0 0 1-.5-.5Zm-18 .5a.501.501 0 0 1-.5-.5V3.5c0-.4.15-.75.45-1.05.3-.3.65-.45 1.05-.45h2.75c.275 0 .5.225.5.5V3c0 .275-.225.5-.5.5H2c-.275 0-.5.225-.5.5v2.25c0 .275-.225.5-.5.5H.5ZM15.25 17.5V17c0-.275.225-.5.5-.5H18c.275 0 .5-.225.5-.5v-2.25c0-.275.225-.5.5-.5h.5c.275 0 .5.225.5.5v2.75c0 .4-.15.75-.45 1.05-.3.3-.65.45-1.05.45h-2.75a.501.501 0 0 1-.5-.5ZM1.5 18c-.4 0-.75-.15-1.05-.45-.3-.3-.45-.65-.45-1.05v-2.75c0-.275.225-.5.5-.5H1c.275 0 .5.225.5.5V16c0 .275.225.5.5.5h2.25c.275 0 .5.225.5.5v.5c0 .275-.225.5-.5.5H1.5ZM3 14.5v-9c0-.275.225-.5.5-.5h13c.275 0 .5.225.5.5v9c0 .275-.225.5-.5.5h-13a.501.501 0 0 1-.5-.5Zm2-1h10c.275 0 .5-.225.5-.5V7c0-.275-.225-.5-.5-.5H5c-.275 0-.5.225-.5.5v6c0 .275.225.5.5.5Z"/>
</svg>