<svg viewBox="0 0 1015 139" fill="none" xmlns="http://www.w3.org/2000/svg">
    <path d="m14.338 131.783-3.604-2.962A29.4 29.4 0 0 1 0 106.107V0h1789.54v105.625c0 9.089-4.12 17.689-11.2 23.387l-3.52 2.836c-8.84 7.111-21.55 7.068-30.46.045-8.76-6.898-21.32-6.879-30.01.108-8.66 6.969-21.18 6.955-29.84-.015-8.62-6.937-21.02-6.95-29.57.076-8.48 6.97-20.67 7.094-29.29.298l-.73-.571c-8.75-6.899-21.15-6.806-29.83.18-8.71 7.007-21.16 7.038-29.86.031a23.793 23.793 0 0 0-29.83 0c-8.71 7.007-21.16 6.975-29.86-.032-8.66-6.969-21.18-6.893-29.84.076-8.58 6.903-20.96 6.946-29.46-.044-8.51-6.99-20.89-6.947-29.46-.044-8.67 6.969-21.22 7.014-29.88.045-8.69-6.987-21.12-7.111-29.87-.213l-.54.423c-8.75 6.899-21.15 6.806-29.83-.18-8.71-7.007-21.16-7.038-29.86-.031a23.793 23.793 0 0 1-29.83 0 23.793 23.793 0 0 0-29.83 0c-8.7 7.007-21.11 7.007-29.82 0a23.793 23.793 0 0 0-29.83 0c-8.7 7.007-21.11 7.007-29.82 0s-21.16-6.975-29.87.032c-8.66 6.969-21.14 6.924-29.8-.046-8.62-6.937-21.02-6.95-29.57.076-8.49 6.97-20.68 7.094-29.3.298l-.83-.66a23.489 23.489 0 0 0-29.45.3 23.483 23.483 0 0 1-29.446.3l-.836-.66c-8.622-6.796-20.813-6.672-29.294.298-8.55 7.026-20.952 7.013-29.573.076-8.662-6.97-21.181-6.984-29.842-.015-8.682 6.987-21.117 7.111-29.869.212l-.616-.485c-8.705-6.862-20.997-6.8-29.634.149l-.343.276c-8.577 6.902-20.821 6.839-29.327-.151s-20.749-7.053-29.327-.151l-.343.276a23.785 23.785 0 0 1-29.634.149l-.695-.548c-8.705-6.862-21.131-6.693-29.767.256-8.622 6.938-21.062 6.982-29.612-.044-8.481-6.97-20.672-7.094-29.294-.298l-.913.72a23.362 23.362 0 0 1-29.294-.298c-8.55-7.026-20.99-6.982-29.612-.044-8.636 6.949-21.061 7.118-29.767.256l-.616-.485c-8.752-6.899-21.147-6.806-29.829.18-8.708 7.007-21.157 7.038-29.864.031-8.708-7.007-21.119-7.007-29.826 0a23.787 23.787 0 0 1-29.826 0c-8.707-7.007-21.158-6.975-29.865.032-8.661 6.969-21.142 6.924-29.803-.046-8.622-6.937-21.024-6.95-29.573.076-8.482 6.97-20.673 7.094-29.295.298l-.836-.66c-8.666-6.831-20.92-6.706-29.446.3-8.525 7.006-20.779 7.131-29.445.3l-.76-.6a23.483 23.483 0 0 0-29.446.3 23.483 23.483 0 0 1-29.446.3l-.685-.541c-8.71-6.865-21.025-6.74-29.594.301a23.599 23.599 0 0 1-29.411.444l-1.381-1.067a23.479 23.479 0 0 0-29.259.441c-8.592 7.061-21.019 7.078-29.683.106-8.662-6.97-21.066-7.017-29.727-.047-8.733 7.027-21.198 6.963-29.858-.154Z" fill="#fff" stroke="#011627" stroke-opacity=".05" stroke-width="2"/>
</svg>