<svg viewBox="0 0 20 20" fill="none" xmlns="http://www.w3.org/2000/svg">
    <path d="M0 5.29412c0-.47059.176471-.88236.529412-1.2353.352941-.35294.764708-.52941 1.235298-.52941H14.7059c.4706 0 .8823.17647 1.2353.52941.3529.35294.5294.76471.5294 1.2353V18.2353c0 .4706-.1765.8823-.5294 1.2353-.353.3529-.7647.5294-1.2353.5294H1.76471c-.47059 0-.882357-.1765-1.235298-.5294C.176471 19.1176 0 18.7059 0 18.2353V5.29412Zm1.76471.58823V17.6471c0 .3235.2647.5882.58823.5882H14.1176c.3236 0 .5883-.2647.5883-.5882V5.88235c0-.32353-.2647-.58823-.5883-.58823H2.35294c-.32353 0-.58823.2647-.58823.58823ZM3.11765.588235C3.11765.264706 3.38235 0 3.70588 0H18.2353c.4706 0 .8823.176471 1.2353.529412C19.8235.882353 20 1.29412 20 1.76471V16.2941c0 .3235-.2647.5883-.5882.5883h-.5883c-.3235 0-.5882-.2648-.5882-.5883V2.35294c0-.32353-.2647-.58823-.5882-.58823H3.70588c-.32353 0-.58823-.26471-.58823-.58824V.588235Z" fill="#010101"/>
</svg>