<svg viewBox="0 0 14 14" fill="none" xmlns="http://www.w3.org/2000/svg">
    <rect width="14" height="14" rx="7" fill="#2EC4B6"/>
    <path d="M6.998 14a6.715 6.715 0 0 1-2.712-.553 7.113 7.113 0 0 1-2.232-1.504A7.072 7.072 0 0 1 .549 9.711 6.767 6.767 0 0 1 0 7c0-.955.185-1.879.55-2.729A6.986 6.986 0 0 1 2.053 2.05 7.234 7.234 0 0 1 4.286.553 6.774 6.774 0 0 1 6.998 0c.956 0 1.88.185 2.73.55.85.367 1.592.867 2.222 1.496.63.63 1.13 1.372 1.497 2.222.368.85.553 1.76.553 2.729 0 .969-.182 1.86-.553 2.71a7.211 7.211 0 0 1-1.497 2.232 6.986 6.986 0 0 1-2.222 1.505 6.81 6.81 0 0 1-2.73.552V14Zm0-1.05c1.655 0 3.062-.58 4.217-1.738 1.154-1.162 1.732-2.564 1.732-4.208 0-1.645-.578-3.061-1.732-4.216-1.155-1.154-2.562-1.732-4.217-1.732-1.655 0-3.047.578-4.206 1.732C1.631 3.943 1.05 5.348 1.05 7.003c0 1.655.58 3.047 1.742 4.209 1.162 1.161 2.565 1.739 4.206 1.739Z" fill="#010101"/>
</svg>