<svg viewBox="0 0 20 20" fill="none" xmlns="http://www.w3.org/2000/svg">
    <path d="M9.708 15.001h.73a.385.385 0 0 0 .384-.385v-3.379c0-.215.175-.385.385-.385h3.404a.385.385 0 0 0 .385-.385v-.73a.385.385 0 0 0-.385-.384h-3.404a.385.385 0 0 1-.385-.385v-3.58a.385.385 0 0 0-.385-.384h-.864c-.14 0-.25.11-.25.25v3.599c0 .275-.225.5-.5.5h-3.44A.385.385 0 0 0 5 9.738v.73c0 .214.175.384.385.384h3.554c.215 0 .385.175.385.385v3.38c0 .214.175.384.385.384ZM9.998 20a9.59 9.59 0 0 1-3.875-.79 10.162 10.162 0 0 1-3.189-2.15c-.91-.909-1.624-1.969-2.15-3.183A9.721 9.721 0 0 1 0 9.976c0-1.384.265-2.659.785-3.874a9.982 9.982 0 0 1 2.15-3.174c.909-.9 1.969-1.61 3.188-2.14a9.725 9.725 0 0 1 3.9-.789c1.384 0 2.659.265 3.873.785a10.12 10.12 0 0 1 3.175 2.14c.9.899 1.614 1.959 2.14 3.173a9.725 9.725 0 0 1 .789 3.9c0 1.384-.26 2.659-.79 3.873a10.224 10.224 0 0 1-2.14 3.185c-.899.91-1.959 1.624-3.174 2.15a9.724 9.724 0 0 1-3.899.789V20Zm.025-1.5c2.349 0 4.348-.83 5.998-2.484 1.65-1.66 2.474-3.67 2.474-6.038 0-2.37-.824-4.35-2.474-5.999-1.65-1.65-3.66-2.474-6.024-2.474s-4.353.824-6.008 2.474c-1.66 1.65-2.49 3.66-2.49 6.023 0 2.365.83 4.354 2.49 6.014 1.66 1.66 3.67 2.484 6.034 2.484Z" fill="#010101"/>
</svg>