<svg viewBox="0 0 20 20" fill="none" xmlns="http://www.w3.org/2000/svg">
    <path d="M9.5 8.696c-1.306 0-2.375-.406-3.206-1.218-.831-.811-1.247-1.855-1.247-3.13 0-1.276.416-2.319 1.247-3.13C7.125.405 8.194 0 9.5 0s2.375.406 3.206 1.217c.832.812 1.247 1.855 1.247 3.13 0 1.276-.415 2.32-1.247 3.131-.831.812-1.9 1.218-3.206 1.218ZM.594 18A.589.589 0 0 1 0 17.42v-2.145c0-.736.19-1.362.564-1.884.374-.521.861-.916 1.455-1.188 1.324-.58 2.6-1.015 3.818-1.304 1.217-.29 2.44-.435 3.663-.435 1.223 0 2.446.15 3.652.446 1.205.302 2.476.73 3.8 1.293.611.272 1.11.667 1.484 1.188.374.522.564 1.148.564 1.884v2.145c0 .32-.267.58-.594.58H.594Zm1.781-1.74h14.25c.327 0 .594-.26.594-.579v-.406c0-.307-.095-.603-.28-.887a1.863 1.863 0 0 0-.694-.626c-1.265-.597-2.423-1.008-3.473-1.229a15.864 15.864 0 0 0-3.266-.33c-1.128 0-2.227.11-3.295.336-1.07.22-2.227.632-3.474 1.23-.279.133-.505.341-.683.625a1.613 1.613 0 0 0-.267.881v.406c0 .319.267.58.594.58h-.006ZM9.5 6.958c.772 0 1.413-.244 1.918-.737.505-.492.754-1.119.754-1.872 0-.754-.255-1.38-.754-1.873-.505-.492-1.14-.742-1.918-.742s-1.413.25-1.918.737c-.505.492-.754 1.118-.754 1.872s.255 1.38.754 1.872c.499.493 1.14.737 1.918.737v.006Z" fill="#010101"/>
</svg>