<svg viewBox="0 0 20 20" fill="none" xmlns="http://www.w3.org/2000/svg">
    <path d="M3.813 12.972a.477.477 0 0 1-.77-.144 5.933 5.933 0 0 1-.356-1.08 7.93 7.93 0 0 1-.187-1.734c0-2.032.736-3.781 2.217-5.241 1.477-1.465 3.24-2.2 5.283-2.2h1.008l-1.542-1.53a.46.46 0 0 1 0-.656l.253-.251a.47.47 0 0 1 .66 0l2.832 2.809a.46.46 0 0 1 0 .656L10.38 6.41a.47.47 0 0 1-.661 0l-.277-.275a.46.46 0 0 1 0-.655l1.519-1.507H10c-1.673 0-3.103.595-4.303 1.776-1.195 1.186-1.79 2.61-1.79 4.27 0 .45.041.874.126 1.278.065.303.14.596.225.87a.467.467 0 0 1-.113.47l-.342.34.01-.005Zm5.765 6.897-2.831-2.81a.46.46 0 0 1 0-.655l2.831-2.81a.47.47 0 0 1 .661 0l.253.252a.46.46 0 0 1 0 .656l-1.542 1.53h1.055c1.673 0 3.103-.595 4.298-1.781 1.195-1.186 1.795-2.61 1.795-4.265 0-.451-.037-.874-.117-1.279a5.004 5.004 0 0 0-.239-.856.466.466 0 0 1 .103-.497l.328-.326a.472.472 0 0 1 .765.144c.159.359.28.721.365 1.084.131.567.197 1.144.197 1.73 0 2.032-.74 3.776-2.213 5.241-1.471 1.465-3.239 2.2-5.287 2.2H8.945l1.543 1.53a.46.46 0 0 1 0 .656l-.254.251a.47.47 0 0 1-.66 0l.004.005Z" fill="#010101"/>
</svg>