<svg viewBox="0 0 20 20" fill="none" xmlns="http://www.w3.org/2000/svg">
    <path d="M14.94 18.995H4.876V7.376l6.017-6.236a.453.453 0 0 1 .607-.04l.563.444a.69.69 0 0 1 .204.318c.045.136.068.304.068.499v.227l-.903 4.24a.455.455 0 0 0 .445.549h6.216c.363 0 .68.136.952.408.272.272.408.59.408.953v1.861c0 .105.009.218.036.332a.524.524 0 0 1-.036.331l-2.856 6.582c-.136.317-.359.59-.667.817a1.64 1.64 0 0 1-.988.34v-.005ZM6.69 17.634h8.247a.45.45 0 0 0 .417-.277l2.702-6.423a.456.456 0 0 0 .037-.177V9.191a.455.455 0 0 0-.454-.454h-7.44a.455.455 0 0 1-.444-.549l.748-3.527c.095-.45-.458-.74-.77-.408L6.361 7.81a.447.447 0 0 0-.122.313v9.056c0 .25.204.454.453.454H6.69ZM4.875 7.376v1.361H2.314a.455.455 0 0 0-.454.454v7.989c0 .25.204.454.454.454h2.561v1.361H.953a.455.455 0 0 1-.453-.453V7.829c0-.25.204-.453.453-.453h3.922Z" fill="#010101"/>
</svg>