<svg viewBox="0 0 20 20" width="20" height="20" fill="none" xmlns="http://www.w3.org/2000/svg">
    <path d="M13.0097.555556v.555554c0 .30556-.2496.55556-.5548.55556H2.21914c-.30513 0-.55478.25-.55478.55555V17.7778c0 .3055.24965.5555.55478.5555H17.7531c.3052 0 .5548-.25.5548-.5555V7.55556c0-.30556.2497-.55556.5548-.55556h.5548c.3051 0 .5548.25.5548.55556V18.3333c0 .4445-.1665.8334-.4993 1.1667-.3329.3333-.7213.5-1.1651.5H1.66436c-.44383 0-.832182-.1667-1.165054-.5C.166435 19.1667 0 18.7778 0 18.3333V1.66667C0 1.22222.166435.833333.499306.5.832178.166667 1.22053 0 1.66436 0H12.4549c.3052 0 .5548.25.5548.555556Zm4.7434 0V1.69444c0 .30556.2497.55556.5548.55556h1.1373c.3051 0 .5548.25.5548.55556v.55555c0 .30556-.2497.55556-.5548.55556h-1.1373c-.3051 0-.5548.25-.5548.55555v1.13889c0 .30556-.2496.55556-.5548.55556h-.5547c-.3052 0-.5548-.25-.5548-.55556V4.47222c0-.30555-.2497-.55555-.5548-.55555h-1.1373c-.3052 0-.5548-.25-.5548-.55556v-.55555c0-.30556.2496-.55556.5548-.55556h1.1373c.3051 0 .5548-.25.5548-.55556V.555556C16.0888.25 16.3384 0 16.6436 0h.5547c.3052 0 .5548.25.5548.555556ZM4.46047 15.5H15.534c.4549 0 .7157-.5222.4438-.8889l-2.8904-3.8555c-.2219-.2945-.6602-.2945-.8877 0l-2.63521 3.4722c-.22191.2944-.66019.2944-.8821 0L6.957 11.9444c-.22191-.2888-.66019-.2944-.8821 0l-2.05826 2.6667c-.28294.3667-.02219.8945.43828.8945l.00555-.0056Z" fill="#010101"/>
</svg>